<?xml version="1.0" standalone="no"?>
<!DOCTYPE svg PUBLIC "-//W3C//DTD SVG 20010904//EN"
 "http://www.w3.org/TR/2001/REC-SVG-20010904/DTD/svg10.dtd">
<svg version="1.0" xmlns="http://www.w3.org/2000/svg"
 width="501.000000pt" height="498.000000pt" viewBox="0 0 501.000000 498.000000"
 preserveAspectRatio="xMidYMid meet">

<g transform="translate(0.000000,498.000000) scale(0.100000,-0.100000)"
fill="#000000" stroke="none">
<path d="M1885 4890 c-38 -10 -74 -19 -78 -19 -5 -1 -6 -4 -4 -8 3 -5 -6 -9
-20 -9 -31 -2 -153 -86 -199 -136 -38 -42 -82 -109 -143 -214 l-40 -71 -158
-5 c-128 -4 -170 -9 -223 -27 -171 -59 -298 -166 -369 -312 -50 -104 -68 -196
-70 -353 -2 -111 -4 -121 -25 -140 -13 -12 -30 -22 -37 -24 -37 -9 -180 -107
-233 -159 -69 -68 -99 -112 -136 -204 -57 -137 -62 -285 -15 -423 13 -37 51
-117 84 -177 34 -59 61 -111 61 -116 0 -4 -23 -45 -50 -91 -28 -46 -47 -88
-44 -94 4 -6 2 -8 -3 -5 -16 10 -62 -125 -75 -216 -17 -130 20 -297 89 -402
55 -83 164 -178 276 -240 l107 -60 0 -123 c0 -73 6 -154 16 -200 22 -109 84
-229 155 -305 33 -34 59 -59 59 -55 0 4 11 -3 25 -16 35 -33 140 -83 210 -101
39 -10 107 -15 196 -15 137 0 169 -4 169 -21 0 -5 12 -28 26 -51 15 -23 39
-64 54 -92 69 -124 198 -237 323 -284 86 -32 200 -45 289 -33 79 11 188 46
200 65 4 6 8 7 8 2 0 -4 12 0 28 10 43 29 164 94 173 94 5 0 57 -27 116 -61
155 -87 232 -111 363 -112 148 0 256 35 375 123 69 51 144 139 137 162 -1 5 2
7 7 4 8 -6 21 16 21 37 0 4 7 15 16 25 9 9 30 42 47 72 l32 55 145 3 c84 1
170 9 205 17 178 44 338 180 413 350 37 85 45 134 51 295 l6 154 96 56 c53 30
114 68 135 84 150 113 244 303 244 494 0 127 -45 253 -153 425 l-30 48 22 40
c12 21 19 39 15 39 -4 0 0 6 9 13 28 20 105 184 121 257 24 103 21 202 -10
306 -32 114 -126 267 -149 246 -5 -4 -5 -2 -1 5 10 17 -67 77 -191 148 l-108
63 -6 158 c-6 175 -14 214 -66 322 -26 56 -55 93 -116 155 -137 138 -273 187
-513 187 l-124 0 -19 38 c-43 85 -125 210 -164 250 -147 154 -370 222 -572
177 -88 -19 -278 -111 -268 -129 3 -6 3 -8 -2 -4 -4 4 -25 -2 -47 -14 -37 -21
-40 -21 -67 -5 -15 9 -32 13 -36 9 -5 -4 -5 -2 -2 4 9 16 -182 112 -268 134
-97 25 -198 25 -290 0z m248 -31 c44 -7 100 -27 162 -59 52 -27 95 -47 95 -44
0 2 8 -3 18 -11 9 -8 26 -22 37 -30 11 -9 16 -18 10 -21 -57 -26 -223 -132
-218 -139 5 -4 2 -5 -5 -1 -7 4 -39 -9 -77 -33 -35 -23 -67 -41 -70 -41 -3 0
-23 -11 -45 -25 -39 -24 -39 -24 -310 -25 -150 -1 -274 1 -277 3 -2 3 10 29
28 58 18 30 32 60 32 67 0 6 4 12 8 12 4 0 21 22 39 50 18 27 57 72 87 100 54
50 201 130 239 130 12 0 15 3 8 8 -20 12 167 14 239 1z m981 -4 c38 -8 73 -12
77 -9 5 3 12 -2 15 -10 3 -9 11 -16 16 -16 6 0 33 -14 60 -30 27 -17 54 -27
60 -24 6 4 8 3 5 -3 -4 -6 14 -29 38 -52 25 -23 62 -68 83 -99 42 -63 102
-166 102 -176 0 -3 -122 -6 -270 -6 -249 0 -274 2 -309 20 -21 10 -41 17 -45
15 -3 -3 -4 -2 -1 2 7 9 -247 153 -258 146 -6 -3 -7 -2 -4 4 3 5 -23 25 -58
44 -36 19 -63 38 -62 44 7 19 219 128 285 145 83 22 176 24 266 5z m-559 -201
c25 -14 72 -41 103 -60 31 -18 63 -34 70 -34 6 0 12 -3 12 -8 0 -4 40 -30 90
-57 49 -28 90 -53 90 -57 0 -5 -184 -8 -410 -8 -379 0 -454 5 -390 25 11 3 20
11 20 16 0 5 3 8 8 6 6 -2 254 136 330 185 15 9 28 17 29 17 1 1 23 -11 48
-25z m-1191 -272 c3 -5 -11 -34 -30 -66 -18 -31 -34 -59 -34 -61 0 -2 -13 -25
-30 -51 -16 -26 -27 -51 -23 -57 3 -6 1 -7 -5 -3 -6 3 -14 -4 -18 -16 -4 -13
-16 -35 -27 -49 -11 -16 -16 -32 -12 -41 5 -7 5 -10 0 -6 -5 5 -25 -20 -47
-55 -21 -34 -45 -67 -53 -73 -8 -6 -11 -15 -7 -19 4 -5 2 -5 -5 -1 -14 8 -85
-32 -78 -44 3 -5 -3 -8 -12 -8 -25 1 -125 -57 -116 -67 5 -4 3 -6 -2 -2 -14 7
-87 -38 -77 -48 4 -4 1 -5 -5 -1 -16 9 -96 -37 -86 -49 5 -4 3 -5 -4 -1 -7 4
-23 0 -36 -9 -13 -8 -27 -12 -30 -8 -13 12 -7 190 8 268 23 124 85 239 168
314 22 20 45 41 51 47 25 24 172 89 229 100 71 14 273 18 281 6z m534 -4 c-2
-6 -25 -22 -51 -36 -25 -14 -43 -30 -40 -35 3 -6 1 -7 -5 -3 -7 4 -53 -17
-104 -47 -340 -200 -503 -293 -506 -285 -3 6 56 119 93 179 5 9 23 40 39 70
15 29 39 69 52 89 12 19 24 42 26 50 2 8 8 18 13 22 18 13 487 10 483 -4z
m1200 -38 c46 -28 86 -50 89 -50 3 0 36 -19 72 -42 36 -23 71 -41 78 -41 7 0
13 -4 13 -8 0 -11 142 -85 155 -81 5 2 7 0 3 -4 -10 -10 191 -126 204 -118 7
5 8 2 3 -6 -6 -10 -4 -12 11 -6 10 4 15 4 11 0 -6 -6 94 -74 109 -74 10 0 64
-44 64 -52 0 -17 144 -257 152 -252 4 3 5 -1 2 -9 -3 -8 7 -28 21 -45 14 -17
26 -34 26 -37 -2 -20 0 -25 11 -19 6 4 8 3 5 -3 -4 -6 6 -30 22 -54 15 -25 30
-49 32 -55 12 -28 125 -220 131 -222 4 -2 8 -8 8 -14 0 -5 18 -40 40 -77 l40
-67 0 -506 0 -505 -85 -148 c-47 -81 -85 -150 -85 -154 0 -3 -15 -29 -33 -56
-48 -71 -140 -238 -140 -252 0 -7 -4 -10 -8 -8 -10 7 -20 -25 -12 -37 3 -6 2
-8 -4 -5 -5 3 -39 -44 -74 -106 l-64 -112 -175 -102 c-96 -56 -182 -108 -190
-115 -9 -7 -22 -14 -30 -16 -7 -2 -52 -26 -99 -54 -47 -28 -104 -61 -126 -73
-110 -63 -125 -72 -120 -78 3 -4 2 -5 -2 -2 -3 3 -34 -11 -69 -30 l-62 -35
-517 0 c-485 0 -517 1 -543 18 -75 51 -153 92 -164 86 -6 -4 -8 -3 -5 3 3 5
-11 19 -31 30 -20 11 -97 54 -170 97 -73 42 -137 74 -144 70 -7 -4 -8 -3 -4 4
8 14 -30 36 -46 26 -6 -4 -8 -3 -5 2 7 13 -131 96 -145 88 -6 -4 -8 -2 -5 3 4
6 -8 17 -26 24 -17 7 -38 18 -45 24 -33 25 -77 72 -80 85 -2 8 -36 70 -75 138
-40 67 -86 148 -104 180 -17 31 -36 58 -42 60 -6 2 -9 8 -5 13 3 5 -3 9 -13 9
-11 0 -14 3 -7 8 8 5 6 15 -6 34 -9 16 -20 25 -25 20 -4 -4 -5 -2 -1 5 7 12
-12 63 -25 63 -4 0 -10 11 -13 25 -4 16 -11 23 -18 19 -6 -4 -8 -3 -5 3 4 6
-6 30 -21 54 -15 24 -47 79 -70 121 l-42 78 0 516 c1 284 4 514 7 510 8 -8
150 234 151 258 0 5 5 12 10 15 9 6 115 186 256 435 33 59 75 122 91 139 17
16 83 60 147 97 65 37 114 70 110 74 -4 4 -2 7 3 5 15 -4 56 16 137 64 40 24
143 83 228 132 85 49 175 102 199 117 l45 28 505 0 506 0 83 -50z m554 -40
c29 -50 59 -103 67 -118 8 -15 38 -67 67 -117 29 -49 51 -92 48 -97 -3 -4 -44
17 -92 46 -48 29 -108 64 -132 78 -25 14 -119 68 -210 121 -91 52 -189 108
-219 124 -30 16 -57 35 -59 41 -3 9 56 12 236 12 l241 0 53 -90z m291 74 c221
-50 397 -225 442 -439 13 -61 22 -295 11 -295 -2 0 -51 27 -110 60 -59 34
-112 58 -118 54 -6 -4 -8 -3 -4 4 4 6 -44 39 -118 82 l-125 71 -41 75 c-25 44
-46 72 -52 68 -7 -4 -8 -2 -4 4 8 13 -23 72 -37 72 -4 0 -6 4 -2 10 3 5 -2 18
-12 28 -10 10 -19 25 -21 32 -2 7 -25 50 -52 96 -27 45 -46 85 -43 88 13 13
217 5 286 -10z m119 -578 c7 4 8 2 4 -5 -4 -6 0 -14 11 -18 10 -3 41 -20 68
-38 28 -17 96 -57 153 -89 l102 -58 0 -239 c0 -162 -3 -239 -11 -239 -5 0 -7
-5 -3 -12 4 -7 3 -8 -5 -4 -6 4 -9 11 -6 16 3 4 -45 95 -106 201 -147 254
-144 250 -154 241 -5 -4 -5 -2 -2 4 4 6 -25 66 -63 133 -39 67 -70 127 -70
132 0 6 16 1 36 -10 19 -12 40 -18 46 -15z m-3027 7 c-5 -10 -8 -26 -9 -35 0
-9 -3 -15 -7 -12 -4 2 -46 -65 -93 -149 -48 -83 -91 -159 -96 -167 -29 -46
-62 -110 -61 -115 1 -4 -4 -12 -12 -18 -8 -7 -28 -37 -44 -67 -51 -93 -75
-130 -84 -130 -5 0 -9 103 -9 238 l0 238 203 117 c111 64 206 117 211 117 4 0
5 -8 1 -17z m-455 -521 l1 -273 -97 -166 c-54 -92 -97 -173 -97 -180 0 -7 -4
-13 -8 -13 -4 0 -20 -22 -35 -50 -15 -27 -31 -50 -35 -50 -10 0 -72 103 -109
182 -76 163 -76 338 1 496 54 112 132 190 269 270 57 34 105 60 107 58 1 -1 3
-125 3 -274z m3926 244 c32 -19 61 -33 66 -30 4 3 8 1 8 -5 0 -6 14 -18 31
-27 53 -27 173 -155 201 -214 53 -111 63 -157 62 -280 -1 -85 -6 -129 -20
-170 -23 -66 -125 -249 -139 -250 -6 0 -21 21 -35 47 -14 27 -40 70 -57 96
-18 27 -33 52 -33 56 0 3 -34 64 -75 135 l-75 129 0 273 c0 151 2 274 4 274 3
0 31 -16 62 -34z m-3924 -1060 c-1 -233 -6 -386 -12 -380 -18 19 -233 400
-231 412 0 6 2 19 3 27 1 8 4 15 8 15 6 0 87 135 169 283 12 21 29 50 39 65
l17 26 5 -29 c3 -16 4 -204 2 -419z m3905 384 c15 -27 31 -46 37 -43 5 3 6 1
2 -5 -3 -6 21 -57 54 -112 33 -56 60 -104 60 -106 0 -3 12 -22 26 -44 l26 -39
-38 -68 c-22 -37 -46 -80 -54 -95 -64 -115 -143 -249 -151 -254 -5 -3 -9 163
-9 411 0 264 4 414 10 410 5 -3 22 -28 37 -55z m-4140 -450 c0 -3 1 -11 2 -18
0 -7 6 -10 13 -6 6 4 8 3 5 -3 -4 -6 29 -70 71 -144 43 -74 93 -159 110 -190
l32 -56 0 -277 0 -277 -45 26 c-24 15 -50 23 -56 19 -7 -4 -9 -3 -5 4 3 6 -17
23 -48 41 -82 47 -175 147 -219 233 -97 195 -84 382 42 601 28 49 48 94 45
100 -4 7 7 -1 23 -18 16 -16 30 -32 30 -35z m4427 -48 c74 -131 97 -198 103
-307 6 -101 -16 -203 -62 -295 -34 -67 -114 -161 -169 -197 -25 -17 -43 -33
-41 -37 3 -3 2 -4 -1 -2 -7 6 -117 -54 -122 -66 -2 -4 -12 -8 -23 -8 -17 0
-19 13 -21 275 -2 151 0 275 3 275 5 0 131 215 209 355 32 59 61 105 65 105 2
0 29 -44 59 -98z m-4109 -495 c4 4 5 3 2 -4 -4 -6 -2 -17 5 -25 7 -7 14 -18
15 -23 1 -6 43 -82 94 -170 51 -88 124 -216 164 -285 39 -69 78 -135 85 -147
8 -12 11 -25 7 -29 -3 -4 -76 34 -161 85 -86 50 -158 91 -160 91 -3 0 -25 14
-50 31 l-46 30 0 233 c0 128 3 236 7 240 4 3 12 -3 18 -14 6 -11 15 -17 20
-13z m3735 -215 l0 -239 -52 -28 c-117 -64 -207 -122 -200 -130 4 -5 2 -5 -5
-1 -6 3 -46 -14 -87 -38 -42 -25 -76 -40 -76 -35 0 11 62 127 90 169 17 25 36
58 112 194 21 37 35 72 32 77 -3 5 -1 8 6 7 12 -3 81 117 72 126 -3 3 -1 6 5
6 6 0 27 29 48 65 21 36 42 65 47 65 4 0 8 -107 8 -238z m-3745 -303 c4 -6 14
-8 22 -5 8 3 12 2 9 -2 -5 -9 121 -85 141 -85 7 0 11 -2 8 -5 -2 -3 50 -36
118 -74 67 -38 133 -81 146 -96 13 -15 53 -80 91 -144 37 -65 71 -114 75 -110
5 4 5 2 1 -5 -3 -6 18 -53 49 -104 30 -51 53 -95 50 -97 -8 -8 -261 -1 -305 9
-148 35 -306 161 -373 299 -20 41 -44 108 -52 148 -15 74 -21 263 -8 275 9 10
21 8 28 -4z m3745 -101 c0 -125 -17 -224 -50 -287 -11 -23 -18 -47 -14 -54 4
-7 4 -9 -1 -5 -11 10 -68 -79 -59 -93 5 -8 3 -9 -5 -5 -15 10 -53 -23 -44 -38
3 -6 3 -8 -1 -4 -4 3 -29 -10 -54 -29 -56 -42 -149 -87 -214 -102 -26 -6 -106
-11 -179 -11 -114 0 -130 2 -119 15 6 8 8 20 4 26 -4 8 -3 9 4 5 7 -4 12 -1
12 8 0 8 6 21 13 28 13 13 70 109 127 213 100 180 88 169 288 285 100 58 191
113 202 122 11 10 20 15 20 13 0 -3 12 1 28 9 15 8 30 15 35 16 4 0 7 -51 7
-112z m-3137 -241 c4 3 7 1 7 -4 0 -6 93 -65 207 -130 431 -247 426 -244 420
-250 -7 -7 -466 -5 -477 2 -5 3 -30 43 -56 88 -25 45 -58 102 -72 127 -14 25
-44 77 -68 117 -23 39 -40 74 -37 77 4 3 20 -3 38 -14 18 -11 35 -17 38 -13z
m2569 14 c-1 -7 -14 -30 -27 -51 -14 -22 -23 -40 -19 -40 3 0 -1 -6 -8 -14 -7
-7 -49 -77 -93 -154 l-80 -142 -210 -1 c-115 -1 -223 0 -239 1 -21 1 -26 -2
-21 -12 6 -10 5 -11 -6 0 -8 7 -9 15 -3 21 9 8 144 87 396 231 65 37 114 70
110 74 -4 4 -2 6 3 4 14 -4 135 61 135 73 0 5 3 8 8 8 19 -3 33 2 28 10 -4 5
2 8 11 6 10 -1 17 -8 15 -14z m-1757 -490 c39 -24 76 -44 82 -44 7 0 11 -2 8
-5 -2 -3 61 -42 142 -88 80 -46 148 -86 151 -89 8 -7 -24 -30 -85 -62 -29 -15
-49 -31 -46 -36 3 -6 2 -7 -4 -4 -6 4 -33 -4 -60 -17 -139 -67 -312 -69 -457
-6 -25 12 -49 22 -53 23 -5 1 -15 7 -23 14 -55 44 -109 81 -114 77 -3 -2 -4
-1 -1 2 2 4 -15 32 -38 63 -23 31 -49 68 -56 83 -8 15 -19 25 -24 21 -6 -3 -7
-1 -3 5 4 7 -4 31 -18 55 -14 24 -23 47 -19 50 3 4 128 6 277 4 l271 -2 70
-44z m845 39 c0 -5 -21 -22 -47 -37 -27 -15 -50 -30 -53 -33 -3 -3 -23 -14
-45 -26 -64 -33 -219 -124 -225 -132 -13 -18 -52 -9 -117 27 -40 21 -75 36
-79 32 -4 -3 -4 -1 -1 5 4 7 -1 15 -11 19 -46 17 -241 138 -237 146 8 12 815
11 815 -1z m650 -3 c0 -8 -13 -33 -28 -58 -16 -24 -42 -66 -57 -94 -16 -27
-58 -79 -94 -115 -36 -36 -64 -69 -63 -73 1 -5 -2 -6 -7 -3 -5 3 -28 -5 -52
-18 -95 -53 -166 -69 -284 -67 -132 2 -154 4 -149 12 2 4 -8 10 -23 14 -49 12
-253 121 -253 135 0 6 54 39 93 57 15 6 27 18 27 24 0 7 3 9 6 6 11 -10 45 13
38 25 -4 7 -3 8 4 4 13 -8 72 23 72 37 0 4 4 6 8 3 5 -3 46 18 93 46 136 81
115 77 407 78 211 0 262 -3 262 -13z"/>
<path d="M1070 3095 l0 -35 130 0 130 0 0 -365 0 -365 40 0 40 0 0 365 0 365
130 0 130 0 0 35 0 35 -300 0 -300 0 0 -35z"/>
<path d="M1755 2968 c23 -90 71 -270 106 -401 l64 -238 44 3 44 3 22 80 c13
44 35 121 50 170 15 50 28 99 29 110 0 11 4 22 7 25 8 7 79 261 79 282 0 36
20 27 30 -14 6 -24 52 -181 103 -350 l91 -308 42 0 c49 0 44 -9 89 165 15 55
56 210 92 345 36 135 68 255 71 268 4 22 2 23 -39 20 l-43 -3 -78 -315 c-43
-173 -80 -328 -83 -344 -9 -42 -17 -26 -41 77 -20 88 -44 170 -135 460 l-40
128 -47 -3 -47 -3 -48 -165 c-76 -256 -124 -432 -132 -478 -4 -23 -10 -40 -15
-37 -4 3 -13 33 -19 67 -10 55 -47 206 -131 531 l-23 87 -43 0 -42 0 43 -162z"/>
<path d="M3326 3056 c-64 -27 -94 -51 -136 -109 -32 -42 -33 -71 -3 -75 14 -2
24 8 39 37 10 21 22 37 26 35 5 -3 8 -1 8 4 0 6 24 25 52 43 50 32 57 34 143
34 86 0 93 -2 145 -35 30 -19 57 -34 61 -33 3 1 6 -3 6 -10 0 -7 10 -29 22
-49 21 -35 31 -38 64 -20 5 2 0 13 -10 25 -10 12 -12 17 -4 12 19 -11 -30 53
-67 87 -57 53 -110 73 -202 76 -72 2 -94 -1 -144 -22z"/>
<path d="M3423 2940 c-49 -7 -112 -47 -143 -89 l-21 -31 23 -9 c19 -8 27 -5
44 16 37 43 76 63 127 63 57 0 96 -18 129 -60 17 -22 28 -28 46 -24 28 8 28
16 -4 53 -55 66 -121 92 -201 81z"/>
<path d="M3060 2415 l0 -275 380 0 380 0 0 275 0 275 -380 0 -380 0 0 -275z
m700 15 l0 -200 -315 0 -314 0 -3 196 c-2 108 -1 198 1 200 2 2 145 4 318 4
l313 0 0 -200z"/>
<path d="M2500 2106 c0 -9 7 -16 16 -16 17 0 14 22 -4 28 -7 2 -12 -3 -12 -12z"/>
<path d="M3016 2030 l-57 -70 180 0 180 0 17 33 c9 17 22 35 28 40 12 8 181 6
194 -2 5 -3 14 -21 21 -38 l13 -33 175 0 c199 0 186 -10 108 89 l-40 50 -381
1 -382 0 -56 -70z"/>
<path d="M1760 2080 c0 -5 16 -10 35 -10 l35 0 0 -102 c0 -125 10 -123 15 4 2
51 4 96 4 99 1 3 15 4 31 1 18 -3 30 0 30 7 0 7 -27 11 -75 11 -43 0 -75 -4
-75 -10z"/>
<path d="M1993 2028 c-43 -21 -55 -100 -22 -142 22 -28 70 -35 99 -16 11 8 8
9 -12 4 -39 -9 -66 3 -83 37 l-16 29 65 0 66 0 -7 33 c-9 52 -47 75 -90 55z
m67 -29 c18 -33 5 -49 -39 -49 -47 0 -55 9 -41 44 12 34 63 37 80 5z"/>
<path d="M2211 2031 c-11 -7 -7 -10 15 -13 29 -3 29 -3 32 -80 4 -97 22 -103
22 -8 0 57 -4 74 -20 90 -22 22 -29 24 -49 11z"/>
<path d="M2657 2027 c-16 -11 -14 -12 15 -12 l33 0 5 -80 c4 -56 7 -73 13 -58
14 38 5 125 -15 145 -21 21 -29 22 -51 5z"/>
<path d="M2150 1945 c0 -104 17 -113 22 -12 4 77 1 97 -13 97 -5 0 -9 -38 -9
-85z"/>
<path d="M2378 2023 c23 -2 42 -8 42 -14 0 -5 -20 -36 -45 -70 -25 -34 -45
-64 -45 -68 0 -4 28 -9 62 -10 66 -2 76 8 13 14 -20 2 -39 6 -42 9 -4 3 8 25
25 49 18 23 39 54 47 70 l16 27 -58 -2 c-50 -1 -52 -2 -15 -5z"/>
<path d="M2500 1944 c0 -54 4 -83 10 -79 6 3 10 42 10 86 0 46 -4 79 -10 79
-6 0 -10 -35 -10 -86z"/>
<path d="M2600 1945 c0 -104 17 -113 22 -12 4 77 1 97 -13 97 -5 0 -9 -38 -9
-85z"/>
<path d="M3396 1983 c-4 -8 -6 -16 -6 -18 0 -2 30 -3 68 -2 52 2 67 5 67 17 0
21 -121 24 -129 3z"/>
<path d="M3183 1913 c141 -2 373 -2 515 0 141 1 25 2 -258 2 -283 0 -399 -1
-257 -2z"/>
</g>
</svg>
