<?xml version="1.0" encoding="UTF-8"?>
<!DOCTYPE svg PUBLIC "-//W3C//DTD SVG 1.1//EN" "http://www.w3.org/Graphics/SVG/1.1/DTD/svg11.dtd">
<svg xmlns="http://www.w3.org/2000/svg" version="1.1" width="512px" height="512px" style="shape-rendering:geometricPrecision; text-rendering:geometricPrecision; image-rendering:optimizeQuality; fill-rule:evenodd; clip-rule:evenodd" xmlns:xlink="http://www.w3.org/1999/xlink">
<g><path style="opacity:0.999" fill="#354245" d="M 23.5,-0.5 C 178.167,-0.5 332.833,-0.5 487.5,-0.5C 499.833,3.16667 507.833,11.1667 511.5,23.5C 511.5,178.167 511.5,332.833 511.5,487.5C 507.833,499.833 499.833,507.833 487.5,511.5C 332.833,511.5 178.167,511.5 23.5,511.5C 11.1667,507.833 3.16667,499.833 -0.5,487.5C -0.5,332.833 -0.5,178.167 -0.5,23.5C 3.16667,11.1667 11.1667,3.16667 23.5,-0.5 Z M 63.5,63.5 C 191.5,63.5 319.5,63.5 447.5,63.5C 447.5,191.5 447.5,319.5 447.5,447.5C 319.5,447.5 191.5,447.5 63.5,447.5C 63.5,319.5 63.5,191.5 63.5,63.5 Z"/></g>
<g><path style="opacity:1" fill="#354245" d="M 127.5,127.5 C 212.833,127.5 298.167,127.5 383.5,127.5C 383.5,148.833 383.5,170.167 383.5,191.5C 298.167,191.5 212.833,191.5 127.5,191.5C 127.5,170.167 127.5,148.833 127.5,127.5 Z"/></g>
<g><path style="opacity:1" fill="#354245" d="M 127.5,223.5 C 212.833,223.5 298.167,223.5 383.5,223.5C 383.5,244.833 383.5,266.167 383.5,287.5C 298.167,287.5 212.833,287.5 127.5,287.5C 127.5,266.167 127.5,244.833 127.5,223.5 Z"/></g>
<g><path style="opacity:1" fill="#354245" d="M 127.5,319.5 C 212.833,319.5 298.167,319.5 383.5,319.5C 383.5,340.833 383.5,362.167 383.5,383.5C 298.167,383.5 212.833,383.5 127.5,383.5C 127.5,362.167 127.5,340.833 127.5,319.5 Z"/></g>
</svg>
