<?xml version="1.0" encoding="UTF-8"?>
<svg version="1.1" xmlns="http://www.w3.org/2000/svg" width="96" height="96">
<path d="M0 0 C0.66032227 -0.00350464 1.32064453 -0.00700928 2.00097656 -0.01062012 C4.18825732 -0.01943775 6.37521583 -0.01358837 8.5625 -0.00683594 C10.07942772 -0.00818258 11.59635501 -0.01012311 13.11328125 -0.01263428 C16.29431258 -0.01558558 19.47523169 -0.01128778 22.65625 -0.00195312 C26.73877902 0.00944149 30.82104509 0.00288204 34.90356445 -0.00909805 C38.03647858 -0.01631654 41.16933011 -0.01402879 44.30224609 -0.00884247 C45.80778026 -0.00750594 47.31332007 -0.00915382 48.81884766 -0.01380157 C50.92105212 -0.01886672 53.02282758 -0.01115721 55.125 0 C56.92130859 0.00238678 56.92130859 0.00238678 58.75390625 0.00482178 C61.5625 0.25878906 61.5625 0.25878906 63.5625 2.25878906 C63.81646729 4.45996094 63.81646729 4.45996094 63.82128906 7.22753906 C63.82759338 8.26201172 63.83389771 9.29648437 63.84039307 10.36230469 C63.8363446 11.48314453 63.83229614 12.60398437 63.828125 13.75878906 C63.83003845 14.90541016 63.8319519 16.05203125 63.83392334 17.23339844 C63.83528622 19.66113504 63.83158267 22.0888789 63.82324219 24.51660156 C63.81254438 28.24332979 63.82313431 31.96957592 63.8359375 35.69628906 C63.83461592 38.0504568 63.83205357 40.40462423 63.828125 42.75878906 C63.83217346 43.87962891 63.83622192 45.00046875 63.84039307 46.15527344 C63.83093658 47.70698242 63.83093658 47.70698242 63.82128906 49.29003906 C63.81969788 50.20333984 63.81810669 51.11664063 63.81646729 52.05761719 C63.5625 54.25878906 63.5625 54.25878906 61.5625 56.25878906 C59.40170288 56.49015808 59.40170288 56.49015808 56.68896484 56.46655273 C55.67385834 56.46382858 54.65875183 56.46110443 53.61288452 56.45829773 C52.510867 56.44788956 51.40884949 56.43748138 50.2734375 56.42675781 C47.9466105 56.43243815 45.61978682 56.43964865 43.29296875 56.44824219 C39.61921189 56.45240967 35.94657107 56.44637065 32.27294922 56.41333008 C28.73066116 56.38633894 25.19070407 56.40326557 21.6484375 56.42675781 C20.55856537 56.40622849 19.46869324 56.38569916 18.34579468 56.36454773 C11.52599142 56.45053006 7.95560502 57.6192016 3.12792969 62.51913452 C2.61133789 63.09322052 2.09474609 63.66730652 1.5625 64.25878906 C0.34433594 65.46341797 0.34433594 65.46341797 -0.8984375 66.69238281 C-2.19103887 68.0456573 -3.48268248 69.39984716 -4.7734375 70.75488281 C-6.4375 72.25878906 -6.4375 72.25878906 -8.4375 72.25878906 C-8.48378063 63.16648105 -8.51934737 54.0742134 -8.54112434 44.98181343 C-8.55157464 40.76013157 -8.56575645 36.53853011 -8.58837891 32.31689453 C-8.61006303 28.24501629 -8.62205923 24.17321554 -8.62725449 20.10128403 C-8.63095824 18.54549819 -8.63819046 16.98971674 -8.64896011 15.43396378 C-8.66341638 13.25975532 -8.66548044 11.08586965 -8.66455078 8.91162109 C-8.668992 7.67251984 -8.67343323 6.43341858 -8.67800903 5.1567688 C-8.20139893 -0.58607759 -4.92877514 0.00654893 0 0 Z " fill="#FE3400" transform="translate(20.4375,11.7412109375)"/>
<path d="M0 0 C3.96 0 7.92 0 12 0 C12.4952446 10.6477588 11.0354847 19.64536192 4 28 C2.68 28 1.36 28 0 28 C1.32 22.72 2.64 17.44 4 12 C2.68 12 1.36 12 0 12 C0 8.04 0 4.08 0 0 Z " fill="#D1C0E4" transform="translate(54,26)"/>
<path d="M0 0 C3.96 0 7.92 0 12 0 C12.4952446 10.6477588 11.0354847 19.64536192 4 28 C2.68 28 1.36 28 0 28 C1.32 22.72 2.64 17.44 4 12 C2.68 12 1.36 12 0 12 C0 8.04 0 4.08 0 0 Z " fill="#D1C0E4" transform="translate(34,26)"/>
</svg>
